<?xml version="1.0" encoding="UTF-8"?>
<svg width="44px" height="44px" viewBox="0 0 44 44" version="1.1" xmlns="http://www.w3.org/2000/svg" xmlns:xlink="http://www.w3.org/1999/xlink">
    <!-- Generator: Sketch 55.2 (78181) - https://sketchapp.com -->
    <title>arrow-right-circle</title>
    <desc>Created with Sketch.</desc>
    <defs>
        <polygon id="path-1" points="0.000293333333 0.000391111111 43.8976267 0.000391111111 43.8976267 43.8973333 0.000293333333 43.8973333"></polygon>
    </defs>
    <g id="Welcome" stroke="none" stroke-width="1" fill="none" fill-rule="evenodd">
        <g id="HOME" transform="translate(-197.000000, -2131.000000)">
            <g id="arrow" transform="translate(197.000000, 2131.000000)">
                <g id="Group-3">
                    <mask id="mask-2" fill="white">
                        <use xlink:href="#path-1"></use>
                    </mask>
                    <g id="Clip-2"></g>
                    <path d="M20.6431378,10.3941689 L31.9902489,21.74128 L20.6431378,33.0893689 L19.9538044,32.4000356 L30.0610933,22.2927467 L9.87487111,22.2927467 L9.87487111,21.1907911 L30.0610933,21.1907911 L19.9538044,11.0835022 L20.6431378,10.3941689 Z M21.9494489,42.9199467 C10.3862489,42.9199467 0.978071111,33.5127467 0.978071111,21.9485689 C0.978071111,10.3853689 10.3862489,0.978168889 21.9494489,0.978168889 C33.5126489,0.978168889 42.9198489,10.3853689 42.9198489,21.9485689 C42.9198489,33.5127467 33.5126489,42.9199467 21.9494489,42.9199467 L21.9494489,42.9199467 Z M21.9494489,0.000391111111 C9.84651556,0.000391111111 0.000293333333,9.84563556 0.000293333333,21.9485689 C0.000293333333,34.0515022 9.84651556,43.8977244 21.9494489,43.8977244 C34.0523822,43.8977244 43.8976267,34.0515022 43.8976267,21.9485689 C43.8976267,9.84563556 34.0523822,0.000391111111 21.9494489,0.000391111111 L21.9494489,0.000391111111 Z" id="Fill-1" fill="#003DA6" mask="url(#mask-2)"></path>
                </g>
            </g>
        </g>
    </g>
</svg>