<?xml version="1.0" encoding="UTF-8"?>
<svg width="37px" height="36px" viewBox="0 0 37 36" version="1.1" xmlns="http://www.w3.org/2000/svg" xmlns:xlink="http://www.w3.org/1999/xlink">
    <!-- Generator: Sketch 55.2 (78181) - https://sketchapp.com -->
    <title>arrow-right-circle@2x</title>
    <desc>Created with Sketch.</desc>
    <defs>
        <polygon id="path-1" points="0.000246666667 0.00032 36.9139133 0.00032 36.9139133 35.916 0.000246666667 35.916"></polygon>
    </defs>
    <g id="Welcome" stroke="none" stroke-width="1" fill="none" fill-rule="evenodd">
        <g id="Menu" transform="translate(-824.000000, -812.000000)">
            <g id="arrow" transform="translate(824.000000, 812.000000)">
                <g id="Group-3">
                    <mask id="mask-2" fill="white">
                        <use xlink:href="#path-1"></use>
                    </mask>
                    <g id="Clip-2"></g>
                    <path d="M17.3590022,8.50432 L26.9008911,17.78832 L17.3590022,27.07312 L16.7793356,26.50912 L25.2786467,18.23952 L8.30386889,18.23952 L8.30386889,17.33792 L25.2786467,17.33792 L16.7793356,9.06832 L17.3590022,8.50432 Z M18.4574911,35.11632 C8.73389111,35.11632 0.822468889,27.41952 0.822468889,17.95792 C0.822468889,8.49712 8.73389111,0.80032 18.4574911,0.80032 C28.1810911,0.80032 36.0916911,8.49712 36.0916911,17.95792 C36.0916911,27.41952 28.1810911,35.11632 18.4574911,35.11632 L18.4574911,35.11632 Z M18.4574911,0.00032 C8.28002444,0.00032 0.000246666667,8.05552 0.000246666667,17.95792 C0.000246666667,27.86032 8.28002444,35.91632 18.4574911,35.91632 C28.6349578,35.91632 36.9139133,27.86032 36.9139133,17.95792 C36.9139133,8.05552 28.6349578,0.00032 18.4574911,0.00032 L18.4574911,0.00032 Z" id="Fill-1" fill="#FFFFFF" mask="url(#mask-2)"></path>
                </g>
            </g>
        </g>
    </g>
</svg>