<?xml version="1.0" encoding="UTF-8"?>
<svg width="98px" height="98px" viewBox="0 0 98 98" version="1.1" xmlns="http://www.w3.org/2000/svg" xmlns:xlink="http://www.w3.org/1999/xlink">
    <!-- Generator: Sketch 55.2 (78181) - https://sketchapp.com -->
    <title>dots-navbar</title>
    <desc>Created with Sketch.</desc>
    <defs>
        <polygon id="path-1" points="0 0 98 0 98 98 0 98"></polygon>
    </defs>
    <g id="Welcome" stroke="none" stroke-width="1" fill="none" fill-rule="evenodd">
        <g id="Desktop-Packaging" transform="translate(-20.000000, -20.000000)">
            <g id="DOTS" transform="translate(20.000000, 20.000000)">
                <g id="Group-3">
                    <mask id="mask-2" fill="white">
                        <use xlink:href="#path-1"></use>
                    </mask>
                    <g id="Clip-2"></g>
                    <path d="M7.41485718,40.6876128 C4.49049032,40.6876128 2.1195339,43.0565659 2.1195339,45.9756552 C2.1195339,48.8975512 4.49049032,51.2665044 7.41485718,51.2665044 C10.3364148,51.2665044 12.7073713,48.8975512 12.7073713,45.9756552 C12.7073713,43.0565659 10.3364148,40.6876128 7.41485718,40.6876128 M20.2528558,27.8604611 C17.3284889,27.8604611 14.9603417,30.2266075 14.9603417,33.1485035 C14.9603417,36.0675927 17.3284889,38.4365459 20.2528558,38.4365459 C23.1744134,38.4365459 25.5453699,36.0675927 25.5453699,33.1485035 C25.5453699,30.2266075 23.1744134,27.8604611 20.2528558,27.8604611 M33.0936636,15.0305026 C30.1692967,15.0305026 27.7983403,17.3994558 27.7983403,20.318545 C27.7983403,23.2404411 30.1692967,25.6065874 33.0936636,25.6065874 C36.0180304,25.6065874 38.3861776,23.2404411 38.3861776,20.318545 C38.3861776,17.3994558 36.0180304,15.0305026 33.0936636,15.0305026 M45.9316622,2.203351 C43.0101045,2.203351 40.6391481,4.56949735 40.6391481,7.49139338 C40.6391481,10.4104826 43.0101045,12.7794358 45.9316622,12.7794358 C48.856029,12.7794358 51.2269854,10.4104826 51.2269854,7.49139338 C51.2269854,4.56949735 48.856029,2.203351 45.9316622,2.203351 M2.17009932,14.825605 C-0.723366442,17.7166261 -0.723366442,22.4040097 2.17009932,25.2950308 C5.06356509,28.1860518 9.7549125,28.1860518 12.6455691,25.2950308 C15.541844,22.4040097 15.541844,17.7166261 12.6455691,14.825605 C9.7549125,11.934584 5.06356509,11.934584 2.17009932,14.825605 M71.5795674,4.48529285 C69.8238237,4.48529285 68.4023735,5.90554203 68.4023735,7.65980238 C68.4023735,9.41406272 69.8238237,10.8343119 71.5795674,10.8343119 C73.3353112,10.8343119 74.7567614,9.41406272 74.7567614,7.65980238 C74.7567614,5.90554203 73.3353112,4.48529285 71.5795674,4.48529285 M58.7780883,17.2731491 C57.0251537,17.2731491 55.6008944,18.6962051 55.6008944,20.4476586 C55.6008944,22.2019189 57.0251537,23.6221681 58.7780883,23.6221681 C60.5338321,23.6221681 61.9580915,22.2019189 61.9580915,20.4476586 C61.9580915,18.6962051 60.5338321,17.2731491 58.7780883,17.2731491 M45.9822276,30.0610053 C44.2264838,30.0610053 42.8050336,31.4840613 42.8050336,33.2355148 C42.8050336,34.9897752 44.2264838,36.4128312 45.9822276,36.4128312 C47.7379714,36.4128312 49.1566123,34.9897752 49.1566123,33.2355148 C49.1566123,31.4840613 47.7379714,30.0610053 45.9822276,30.0610053 M33.1807484,42.8516683 C31.4278138,42.8516683 30.0035545,44.2719175 30.0035545,46.023371 C30.0035545,47.7776314 31.4278138,49.2006874 33.1807484,49.2006874 C34.9364922,49.2006874 36.3607516,47.7776314 36.3607516,46.023371 C36.3607516,44.2719175 34.9364922,42.8516683 33.1807484,42.8516683 M20.3820785,55.6395246 C18.6263347,55.6395246 17.2020754,57.0597737 17.2020754,58.8140341 C17.2020754,60.5682944 18.6263347,61.9885436 20.3820785,61.9885436 C22.1350131,61.9885436 23.5592725,60.5682944 23.5592725,58.8140341 C23.5592725,57.0597737 22.1350131,55.6395246 20.3820785,55.6395246 M7.58340858,68.4273808 C5.83047398,68.4273808 4.40621462,69.84763 4.40621462,71.6018903 C4.40621462,73.3561507 5.83047398,74.7763998 7.58340858,74.7763998 C9.33915237,74.7763998 10.7577934,73.3561507 10.7577934,71.6018903 C10.7577934,69.84763 9.33915237,68.4273808 7.58340858,68.4273808 M96.5869774,7.1545754 C95.8060226,7.1545754 95.1711456,7.78610912 95.1711456,8.56640412 C95.1711456,9.34669913 95.8060226,9.98103967 96.5869774,9.98103967 C97.3679322,9.98103967 98,9.34669913 98,8.56640412 C98,7.78610912 97.3679322,7.1545754 96.5869774,7.1545754 M84.0018059,19.7291136 C83.2180419,19.7291136 82.5887833,20.3606473 82.5887833,21.1409423 C82.5887833,21.9212373 83.2180419,22.5555778 84.0018059,22.5555778 C84.7827607,22.5555778 85.4176377,21.9212373 85.4176377,21.1409423 C85.4176377,20.3606473 84.7827607,19.7291136 84.0018059,19.7291136 M71.4166344,32.3036517 C70.6356796,32.3036517 70.0008026,32.9351855 70.0008026,33.7154805 C70.0008026,34.4957755 70.6356796,35.130116 71.4166344,35.130116 C72.1975893,35.130116 72.829657,34.4957755 72.829657,33.7154805 C72.829657,32.9351855 72.1975893,32.3036517 71.4166344,32.3036517 M58.8314629,44.8781899 C58.0476989,44.8781899 57.4184403,45.5097236 57.4184403,46.2900186 C57.4184403,47.0703136 58.0476989,47.7046542 58.8314629,47.7046542 C59.6124178,47.7046542 60.2472947,47.0703136 60.2472947,46.2900186 C60.2472947,45.5097236 59.6124178,44.8781899 58.8314629,44.8781899 M46.2462914,57.4527281 C45.4653366,57.4527281 44.8304596,58.0842618 44.8304596,58.8645568 C44.8304596,59.6448518 45.4653366,60.2763855 46.2462914,60.2763855 C47.0272463,60.2763855 47.659314,59.6448518 47.659314,58.8645568 C47.659314,58.0842618 47.0272463,57.4527281 46.2462914,57.4527281 M33.6611199,70.0272662 C32.8773559,70.0272662 32.2452882,70.6587999 32.2452882,71.4390949 C32.2452882,72.2193899 32.8773559,72.8509237 33.6611199,72.8509237 C34.4420748,72.8509237 35.0769517,72.2193899 35.0769517,71.4390949 C35.0769517,70.6587999 34.4420748,70.0272662 33.6611199,70.0272662 M21.0759485,82.6018044 C20.2949936,82.6018044 19.6601167,83.2333381 19.6601167,84.0136331 C19.6601167,84.7939281 20.2949936,85.4254618 21.0759485,85.4254618 C21.8569033,85.4254618 22.4889711,84.7939281 22.4889711,84.0136331 C22.4889711,83.2333381 21.8569033,82.6018044 21.0759485,82.6018044 M8.49077697,95.1763425 C7.70701294,95.1763425 7.07494518,95.8078763 7.07494518,96.5881713 C7.07494518,97.3684663 7.70701294,98 8.49077697,98 C9.27173181,98 9.90660876,97.3684663 9.90660876,96.5881713 C9.90660876,95.8078763 9.27173181,95.1763425 8.49077697,95.1763425 M27.320778,7.40438207 C27.320778,11.4939138 24.0031245,14.8059573 19.9101346,14.8059573 C15.8199538,14.8059573 12.5023004,11.4939138 12.5023004,7.40438207 C12.5023004,3.31485035 15.8199538,0 19.9101346,0 C24.0031245,0 27.320778,3.31485035 27.320778,7.40438207" id="Fill-1" fill="#FFFFFF" mask="url(#mask-2)"></path>
                </g>
            </g>
        </g>
    </g>
</svg>