<?xml version="1.0" encoding="UTF-8"?>
<svg width="151px" height="73px" viewBox="0 0 151 73" version="1.1" xmlns="http://www.w3.org/2000/svg" xmlns:xlink="http://www.w3.org/1999/xlink">
    <!-- Generator: Sketch 55.2 (78181) - https://sketchapp.com -->
    <title>logo-footer</title>
    <desc>Created with Sketch.</desc>
    <defs>
        <polygon id="path-1" points="0 72.4164212 150.654519 72.4164212 150.654519 0.000421153846 0 0.000421153846"></polygon>
    </defs>
    <g id="Welcome" stroke="none" stroke-width="1" fill="none" fill-rule="evenodd">
        <g id="HOME" transform="translate(-95.000000, -3604.000000)">
            <g id="LOGO" transform="translate(95.000000, 3604.000000)">
                <g id="Group-40">
                    <path d="M83.2411111,64.5263846 L83.5845185,64.5263846 L83.5845185,65.7505385 C83.250963,66.0158654 82.7822963,66.1885385 82.3291111,66.1885385 C81.3481481,66.1885385 80.5656296,65.4360769 80.5656296,64.4870769 C80.5656296,63.5380769 81.3523704,62.7912308 82.3474074,62.7912308 C82.8160741,62.7912308 83.2706667,62.9695192 83.5943704,63.2530962 L83.372,63.5338654 C83.0961481,63.2867885 82.7245926,63.1435962 82.3474074,63.1435962 C81.5747407,63.1435962 80.9568889,63.7402308 80.9568889,64.4870769 C80.9568889,65.2395385 81.578963,65.8361731 82.353037,65.8361731 C82.657037,65.8361731 82.9807407,65.7308846 83.2411111,65.5525962 L83.2411111,64.5263846 Z" id="Fill-1" fill="#FFFFFF"></path>
                    <path d="M86.8702519,64.7477712 C87.4838815,64.7477712 87.8315111,64.4726173 87.8315111,63.9433673 C87.8315111,63.4281558 87.4838815,63.1572135 86.8702519,63.1572135 L85.9709185,63.1572135 L85.9709185,64.7477712 L86.8702519,64.7477712 Z M87.7977333,66.1740788 L87.0869926,65.0945212 C87.019437,65.1001365 86.9476593,65.1043481 86.8702519,65.1043481 L85.9709185,65.1043481 L85.9709185,66.1740788 L85.5852889,66.1740788 L85.5852889,62.8006365 L86.8702519,62.8006365 C87.7161037,62.8006365 88.2044741,63.2147712 88.2044741,63.9335404 C88.2044741,64.4866558 87.9286222,64.8685019 87.4402519,65.022925 L88.2382519,66.1740788 L87.7977333,66.1740788 Z" id="Fill-3" fill="#FFFFFF"></path>
                    <path d="M91.4890815,65.8363135 C92.1322667,65.8363135 92.5178963,65.4516596 92.5178963,64.7862365 L92.5178963,62.7997942 L92.9035259,62.7997942 L92.9035259,64.7862365 C92.9035259,65.6678519 92.3729333,66.1886788 91.4890815,66.1886788 C90.5996,66.1886788 90.0633778,65.6678519 90.0633778,64.7862365 L90.0633778,62.7997942 L90.4504148,62.7997942 L90.4504148,64.7862365 C90.4504148,65.4516596 90.8458963,65.8363135 91.4890815,65.8363135" id="Fill-5" fill="#FFFFFF"></path>
                    <path d="M97.1325037,63.9430865 C97.1325037,63.427875 96.7806519,63.1569327 96.1712444,63.1569327 L95.3014667,63.1569327 L95.3014667,64.7474904 L96.1712444,64.7474904 C96.7806519,64.7474904 97.1325037,64.4723365 97.1325037,63.9430865 M97.5040593,63.9332596 C97.5040593,64.6744904 97.0213185,65.1040673 96.1853185,65.1040673 L95.3014667,65.1040673 L95.3014667,66.1737981 L94.9144296,66.1737981 L94.9144296,62.8003558 L96.1853185,62.8003558 C97.0213185,62.8003558 97.5040593,63.2144904 97.5040593,63.9332596" id="Fill-7" fill="#FFFFFF"></path>
                    <path d="M99.2827407,64.4873577 C99.2827407,65.2342038 99.9104444,65.8364538 100.663407,65.8364538 C101.417778,65.8364538 102.037037,65.2342038 102.037037,64.4873577 C102.037037,63.7405115 101.417778,63.1480885 100.663407,63.1480885 C99.9104444,63.1480885 99.2827407,63.7405115 99.2827407,64.4873577 M102.432519,64.4873577 C102.432519,65.4363577 101.65,66.1888192 100.663407,66.1888192 C99.674,66.1888192 98.8914815,65.4363577 98.8914815,64.4873577 C98.8914815,63.5383577 99.674,62.7915115 100.663407,62.7915115 C101.65,62.7915115 102.432519,63.5383577 102.432519,64.4873577" id="Fill-9" fill="#FFFFFF"></path>
                    <polygon id="Fill-11" fill="#FFFFFF" points="107.193215 62.8003558 108.430326 65.2486635 109.661807 62.8003558 110.136104 62.8003558 110.136104 66.1737981 109.778622 66.1737981 109.772993 63.3689135 108.541511 65.8172212 108.309289 65.8172212 107.08203 63.3689135 107.08203 66.1737981 106.716104 66.1737981 106.716104 62.8003558"></polygon>
                    <mask id="mask-2" fill="white">
                        <use xlink:href="#path-1"></use>
                    </mask>
                    <g id="Clip-14"></g>
                    <polygon id="Fill-13" fill="#FFFFFF" mask="url(#mask-2)" points="112.226667 66.1749212 112.613704 66.1749212 112.613704 62.8014788 112.226667 62.8014788"></polygon>
                    <polygon id="Fill-15" fill="#FFFFFF" mask="url(#mask-2)" points="115.089896 62.8003558 115.089896 65.8172212 116.573304 65.8172212 116.573304 66.1737981 114.702859 66.1737981 114.702859 62.8003558"></polygon>
                    <path d="M119.631741,62.3727442 L119.270037,62.3727442 L119.849889,61.7213596 L120.231296,61.8954365 L119.631741,62.3727442 Z M120.284778,64.9558212 L119.516333,63.2206673 L118.757741,64.9558212 L120.284778,64.9558212 Z M120.439593,65.3123981 L118.598704,65.3123981 L118.221519,66.1743596 L117.811963,66.1743596 L119.327741,62.8009173 L119.728852,62.8009173 L121.241815,66.1743596 L120.821,66.1743596 L120.439593,65.3123981 Z" id="Fill-16" fill="#FFFFFF" mask="url(#mask-2)"></path>
                    <polygon id="Fill-17" fill="#FFFFFF" mask="url(#mask-2)" points="123.236111 62.8003558 125.265593 65.5434712 125.265593 62.8003558 125.647 62.8003558 125.647 66.1737981 125.251519 66.1737981 123.222037 63.4377019 123.222037 66.1737981 122.835 66.1737981 122.835 62.8003558"></polygon>
                    <polygon id="Fill-18" fill="#FFFFFF" mask="url(#mask-2)" points="80.8851111 72.3406135 81.2707407 72.3406135 81.2707407 68.9671712 80.8851111 68.9671712"></polygon>
                    <polygon id="Fill-19" fill="#FFFFFF" mask="url(#mask-2)" points="83.7607259 68.9668904 85.7902074 71.7100058 85.7902074 68.9668904 86.1716148 68.9668904 86.1716148 72.3403327 85.7761333 72.3403327 83.7466519 69.6042365 83.7466519 72.3403327 83.3596148 72.3403327 83.3596148 68.9668904"></polygon>
                    <path d="M90.2445111,71.1213731 L89.4774741,69.3862192 L88.7188815,71.1213731 L90.2445111,71.1213731 Z M90.3993259,71.47795 L88.558437,71.47795 L88.1826593,72.3413154 L87.7702889,72.3413154 L89.2888815,68.9664692 L89.6885852,68.9664692 L91.2015481,72.3413154 L90.7807333,72.3413154 L90.3993259,71.47795 Z" id="Fill-20" fill="#FFFFFF" mask="url(#mask-2)"></path>
                    <path d="M95.0714963,70.6922173 L95.4149037,70.6922173 L95.4149037,71.9163712 C95.0813481,72.1816981 94.6126815,72.355775 94.1594963,72.355775 C93.1771259,72.355775 92.3946074,71.6033135 92.3946074,70.6543135 C92.3946074,69.7039096 93.1827556,68.9570635 94.1777926,68.9570635 C94.6464593,68.9570635 95.1010519,69.1353519 95.4233481,69.4203327 L95.2023852,69.6996981 C94.9265333,69.454025 94.5549778,69.3094288 94.1777926,69.3094288 C93.4051259,69.3094288 92.7858667,69.9060635 92.7858667,70.6543135 C92.7858667,71.4053712 93.4093481,72.0034096 94.1834222,72.0034096 C94.4874222,72.0034096 94.8111259,71.8967173 95.0714963,71.7184288 L95.0714963,70.6922173 Z" id="Fill-21" fill="#FFFFFF" mask="url(#mask-2)"></path>
                    <path d="M98.6999333,70.9143058 C99.313563,70.9143058 99.6611926,70.6391519 99.6611926,70.1099019 C99.6611926,69.5946904 99.313563,69.3237481 98.6999333,69.3237481 L97.8006,69.3237481 L97.8006,70.9143058 L98.6999333,70.9143058 Z M99.6274148,72.3406135 L98.9166741,71.2610558 C98.8491185,71.2652673 98.7773407,71.2708827 98.6999333,71.2708827 L97.8006,71.2708827 L97.8006,72.3406135 L97.4149704,72.3406135 L97.4149704,68.9671712 L98.6999333,68.9671712 C99.5457852,68.9671712 100.034156,69.3813058 100.034156,70.100075 C100.034156,70.6531904 99.7583037,71.0336327 99.2699333,71.1880558 L100.067933,72.3406135 L99.6274148,72.3406135 Z" id="Fill-22" fill="#FFFFFF" mask="url(#mask-2)"></path>
                    <path d="M103.952378,71.1213731 L103.183933,69.3862192 L102.425341,71.1213731 L103.952378,71.1213731 Z M104.107193,71.47795 L102.266304,71.47795 L101.889119,72.3413154 L101.478156,72.3413154 L102.995341,68.9664692 L103.396452,68.9664692 L104.908007,72.3413154 L104.4886,72.3413154 L104.107193,71.47795 Z" id="Fill-23" fill="#FFFFFF" mask="url(#mask-2)"></path>
                    <polygon id="Fill-24" fill="#FFFFFF" mask="url(#mask-2)" points="108.652837 68.9668904 108.652837 69.3234673 106.890763 69.3234673 106.890763 70.5335827 108.469874 70.5335827 108.469874 70.8859481 106.890763 70.8859481 106.890763 72.3403327 106.503726 72.3403327 106.503726 68.9668904"></polygon>
                    <polygon id="Fill-25" fill="#FFFFFF" mask="url(#mask-2)" points="80.3714074 52.8762865 150.654519 52.8762865 150.654519 49.4003635 80.3714074 49.4003635"></polygon>
                    <path d="M88.6418963,21.1641038 L86.4801185,16.2801231 L84.3436741,21.1641038 L88.6418963,21.1641038 Z M89.0781926,22.16645 L83.8947111,22.16645 L82.8349333,24.5965077 L81.6780444,24.5965077 L85.9495259,15.0994885 L87.0782667,15.0994885 L91.3356741,24.5965077 L90.1520444,24.5965077 L89.0781926,22.16645 Z" id="Fill-26" fill="#FFFFFF" mask="url(#mask-2)"></path>
                    <path d="M96.3964296,17.4187827 L96.3964296,18.4506096 C94.8862815,18.4225327 93.9489481,19.3588981 93.8265037,20.7978404 L93.8265037,24.5966481 L92.7653185,24.5966481 L92.7653185,17.4594942 L93.8265037,17.4594942 L93.8265037,19.0472442 C94.3022074,18.0027827 95.1860593,17.4328212 96.3964296,17.4187827" id="Fill-27" fill="#FFFFFF" mask="url(#mask-2)"></path>
                    <path d="M101.606933,24.1075481 C101.104489,24.4472788 100.558415,24.6367981 99.9884148,24.6367981 C98.9398963,24.6494327 98.1658222,24.026125 98.1658222,22.6152596 L98.1658222,18.5047981 L97.1327852,18.5047981 L97.1327852,17.6765288 L98.1658222,17.6765288 L98.1658222,15.8037981 L99.2129333,15.8037981 L99.2129333,17.6765288 L101.484489,17.6765288 L101.484489,18.5047981 L99.2129333,18.5047981 L99.2129333,22.4397788 C99.2129333,23.3073558 99.5535259,23.6597212 100.165748,23.6597212 C100.531674,23.6456827 100.913081,23.5235481 101.307156,23.2933173 L101.606933,24.1075481 Z" id="Fill-28" fill="#FFFFFF" mask="url(#mask-2)"></path>
                    <path d="M108.40823,20.5801038 C108.340674,19.1959115 107.4146,18.3002577 106.01423,18.3002577 C104.6406,18.3002577 103.661044,19.1959115 103.511859,20.5801038 L108.40823,20.5801038 Z M109.361044,21.4210077 L103.511859,21.4210077 C103.687785,22.8318731 104.708156,23.7542 106.109933,23.7542 C106.993785,23.7542 107.769267,23.4299115 108.3266,22.8459115 L108.910674,23.4565846 C108.232304,24.2034308 107.2246,24.6372192 106.028304,24.6372192 C103.920007,24.6372192 102.464748,23.1575654 102.464748,21.0279308 C102.464748,18.8982962 103.932674,17.4326808 106.01423,17.4186423 C108.3266,17.4186423 109.469415,19.0063923 109.361044,21.4210077 L109.361044,21.4210077 Z" id="Fill-29" fill="#FFFFFF" mask="url(#mask-2)"></path>
                    <path d="M113.101793,18.3009596 C112.29957,18.3009596 111.687348,18.5859404 111.687348,19.2639981 C111.687348,20.8784212 115.685793,20.0515558 115.685793,22.6149788 C115.685793,24.0132096 114.434607,24.6365173 113.060978,24.6365173 C112.040607,24.6365173 110.993496,24.2841519 110.313719,23.6327673 L110.721867,22.8592481 C111.334089,23.4292096 112.258756,23.7689404 113.101793,23.7689404 C113.94483,23.7689404 114.626015,23.4432481 114.638681,22.723075 C114.679496,20.9865173 110.666978,21.8695365 110.681052,19.3454212 C110.681052,17.9893058 111.864681,17.4053058 113.169348,17.4053058 C114.026459,17.4053058 114.85683,17.6636135 115.454978,18.0566904 L115.04683,18.8709212 C114.489496,18.5185558 113.768904,18.3009596 113.101793,18.3009596" id="Fill-30" fill="#FFFFFF" mask="url(#mask-2)"></path>
                    <path d="M90.5977704,36.0649481 L92.6131778,36.0649481 L92.6131778,40.582525 C91.3732519,41.5090635 89.5126593,42.1450058 87.8420667,42.1450058 C84.2447333,42.1450058 81.4721407,39.4833135 81.4721407,36.0312558 C81.4721407,32.5777942 84.2954,29.9511981 87.9799926,29.9511981 C89.7195481,29.9511981 91.4928815,30.6208327 92.6990296,31.6681019 L91.3901407,33.3513135 C90.4781407,32.5090058 89.2030296,31.9951981 87.9799926,31.9951981 C85.656363,31.9951981 83.8309556,33.7626404 83.8309556,36.0312558 C83.8309556,38.3153135 85.6732519,40.0841596 87.9982889,40.0841596 C88.824437,40.0841596 89.7716222,39.7907558 90.5977704,39.3274865 L90.5977704,36.0649481 Z" id="Fill-31" fill="#FFFFFF" mask="url(#mask-2)"></path>
                    <path d="M100.668193,32.7671731 L100.668193,34.9319038 C98.7217481,34.8111731 97.5338963,35.9440769 97.5338963,37.6104423 L97.5338963,42.0409808 L95.2961185,42.0409808 L95.2961185,32.8528077 L97.5338963,32.8528077 L97.5338963,34.6216538 C98.154563,33.4199615 99.2382667,32.7840192 100.668193,32.7671731" id="Fill-32" fill="#FFFFFF" mask="url(#mask-2)"></path>
                    <path d="M106.313585,31.6334269 L104.419215,31.6334269 L106.244622,28.9885808 L108.448622,29.8645808 L106.313585,31.6334269 Z M107.433881,38.8477923 L107.433881,38.0223308 L105.108844,38.0223308 C103.920993,38.0223308 103.369289,38.3494269 103.369289,39.1566385 C103.369289,39.9287538 103.989956,40.4271192 105.004696,40.4271192 C106.296696,40.4271192 107.312844,39.7406385 107.433881,38.8477923 L107.433881,38.8477923 Z M107.45077,42.0415423 L107.45077,40.9254846 C106.813215,41.7326962 105.780178,42.1454269 104.471289,42.1454269 C102.491067,42.1454269 101.251141,40.9254846 101.251141,39.2942154 C101.251141,37.5927538 102.509363,36.5454846 104.747141,36.5286385 L107.433881,36.5286385 L107.433881,36.2871769 C107.433881,35.2244654 106.727363,34.5871192 105.349511,34.5871192 C104.489585,34.5871192 103.557881,34.8805231 102.612104,35.4462731 L101.802844,33.9006385 C103.128622,33.1622154 104.161659,32.7677346 105.849141,32.7677346 C108.26003,32.7677346 109.619585,33.9862731 109.637881,36.0302731 L109.65477,42.0415423 L107.45077,42.0415423 Z" id="Fill-33" fill="#FFFFFF" mask="url(#mask-2)"></path>
                    <path d="M118.382667,42.0414019 L120.621852,42.0414019 L120.621852,32.8532288 L118.382667,32.8532288 L118.382667,42.0414019 Z M118.295407,30.2252288 C118.295407,29.5036519 118.796444,28.9884404 119.501556,28.9884404 C120.208074,28.9884404 120.706296,29.5036519 120.706296,30.2252288 C120.706296,30.9468058 120.208074,31.4620173 119.501556,31.4620173 C118.796444,31.4620173 118.295407,30.9468058 118.295407,30.2252288 L118.295407,30.2252288 Z M115.954889,29.1948058 C116.574148,29.1948058 117.194815,29.3323827 117.676148,29.5892865 L117.607185,31.5139596 C117.108963,31.2893442 116.557259,31.1349212 116.109704,31.1349212 C115.421481,31.1349212 114.920444,31.4620173 114.920444,32.286075 L114.920444,33.2308635 L117.228593,33.2308635 L117.228593,34.8621327 L114.920444,34.8621327 L114.920444,42.0414019 L112.682667,42.0414019 L112.682667,34.8621327 L111.477926,34.8621327 L111.477926,33.2308635 L112.682667,33.2308635 L112.682667,32.3548635 C112.682667,30.2083827 114.301185,29.1948058 115.954889,29.1948058 L115.954889,29.1948058 Z" id="Fill-34" fill="#FFFFFF" mask="url(#mask-2)"></path>
                    <path d="M127.419911,34.7426654 C125.939319,34.7426654 124.906281,35.8418769 124.906281,37.4563 C124.906281,39.1044154 125.939319,40.2036269 127.419911,40.2036269 C128.488133,40.2036269 129.348059,39.8428385 129.899763,39.1226654 L131.293096,40.2724154 C130.485244,41.4404154 129.107393,42.1268962 127.298874,42.1268962 C124.544578,42.1268962 122.650207,40.2387231 122.650207,37.4731462 C122.650207,34.6738769 124.561467,32.7828962 127.332652,32.7828962 C129.021541,32.7828962 130.364207,33.4019923 131.190356,34.4675115 L129.8308,35.7562423 C129.245319,35.1203 128.436059,34.7426654 127.419911,34.7426654" id="Fill-35" fill="#FFFFFF" mask="url(#mask-2)"></path>
                    <path d="M138.4036,38.8472308 L138.4036,38.0231731 L136.078563,38.0231731 C134.890711,38.0231731 134.340415,38.3488654 134.340415,39.1560769 C134.340415,39.9295962 134.959674,40.4265577 135.974415,40.4265577 C137.266415,40.4265577 138.282563,39.7400769 138.4036,38.8472308 L138.4036,38.8472308 Z M138.420489,42.0409808 L138.420489,40.9249231 C137.784341,41.7321346 136.749896,42.1448654 135.442415,42.1448654 C133.460785,42.1448654 132.220859,40.9249231 132.220859,39.2936538 C132.220859,37.5921923 133.479081,36.5449231 135.716859,36.5294808 L138.4036,36.5294808 L138.4036,36.2880192 C138.4036,35.2239038 137.697081,34.5879615 136.320637,34.5879615 C135.459304,34.5879615 134.529007,34.8799615 133.581822,35.4471154 L132.772563,33.9014808 C134.098341,33.1630577 135.131378,32.7671731 136.820267,32.7671731 C139.229748,32.7671731 140.589304,33.9871154 140.6076,36.0311154 L140.624489,42.0409808 L138.420489,42.0409808 Z" id="Fill-36" fill="#FFFFFF" mask="url(#mask-2)"></path>
                    <path d="M145.994452,34.5013442 C145.271044,34.5013442 144.754526,34.7428058 144.754526,35.3085558 C144.754526,36.8541904 149.62697,36.0483827 149.62697,39.3460173 C149.62697,41.2173442 147.957785,42.1270365 145.994452,42.1270365 C144.599711,42.1270365 143.152896,41.6820173 142.188822,40.8397096 L142.964304,39.2772288 C143.807341,39.9974019 145.081044,40.4087288 146.080304,40.4087288 C146.855785,40.4087288 147.441267,40.151825 147.441267,39.5523827 C147.441267,37.8509212 142.636378,38.7788635 142.653267,35.5149212 C142.653267,33.6253442 144.271785,32.7493442 146.132378,32.7493442 C147.337119,32.7493442 148.593933,33.1101327 149.507341,33.7292288 L148.696674,35.3436519 C147.801563,34.8115942 146.786822,34.5013442 145.994452,34.5013442" id="Fill-37" fill="#FFFFFF" mask="url(#mask-2)"></path>
                    <polygon id="Fill-38" fill="#FFFFFF" mask="url(#mask-2)" points="44.5828667 66.0098288 44.1367185 66.0098288 43.689163 66.0098288 36.8590148 59.1015019 36.8590148 72.4155788 51.4130148 72.4155788 51.4130148 59.1015019"></polygon>
                    <path d="M39.0157259,3.10264038 C38.6878,3.10264038 38.4232074,2.83731346 38.4232074,2.51162115 C38.4232074,2.184525 38.6878,1.91919808 39.0157259,1.91919808 C39.3422444,1.91919808 39.6082444,2.184525 39.6082444,2.51162115 C39.6082444,2.83731346 39.3422444,3.10264038 39.0157259,3.10264038 L39.0157259,3.10264038 Z M33.7393556,8.36565962 C33.412837,8.36565962 33.146837,8.10033269 33.146837,7.77323654 C33.146837,7.44754423 33.412837,7.18221731 33.7393556,7.18221731 C34.0672815,7.18221731 34.3318741,7.44754423 34.3318741,7.77323654 C34.3318741,8.10033269 34.0672815,8.36565962 33.7393556,8.36565962 L33.7393556,8.36565962 Z M28.5319481,3.46062115 C27.7958741,3.46062115 27.1991333,2.86539038 27.1991333,2.13117885 C27.1991333,1.39837115 27.7958741,0.803140385 28.5319481,0.803140385 C29.2680222,0.803140385 29.8633556,1.39837115 29.8633556,2.13117885 C29.8633556,2.86539038 29.2680222,3.46062115 28.5319481,3.46062115 L28.5319481,3.46062115 Z M28.4629852,13.6286788 C28.1364667,13.6286788 27.8704667,13.3633519 27.8704667,13.0362558 C27.8704667,12.7091596 28.1364667,12.4452365 28.4629852,12.4452365 C28.7909111,12.4452365 29.0555037,12.7091596 29.0555037,13.0362558 C29.0555037,13.3633519 28.7909111,13.6286788 28.4629852,13.6286788 L28.4629852,13.6286788 Z M23.1655037,8.81208269 C22.4294296,8.81208269 21.8340963,8.21825577 21.8340963,7.48404423 C21.8340963,6.74983269 22.4294296,6.15460192 23.1655037,6.15460192 C23.9015778,6.15460192 24.4983185,6.74983269 24.4983185,7.48404423 C24.4983185,8.21825577 23.9015778,8.81208269 23.1655037,8.81208269 L23.1655037,8.81208269 Z M23.1866148,18.8902942 C22.8600963,18.8902942 22.5940963,18.6263712 22.5940963,18.299275 C22.5940963,17.9721788 22.8600963,17.7082558 23.1866148,17.7082558 C23.5145407,17.7082558 23.7805407,17.9721788 23.7805407,18.299275 C23.7805407,18.6263712 23.5145407,18.8902942 23.1866148,18.8902942 L23.1866148,18.8902942 Z M17.8004667,14.1649481 C17.0643926,14.1649481 16.4676519,13.5697173 16.4676519,12.8355058 C16.4676519,12.1026981 17.0643926,11.5074673 17.8004667,11.5074673 C18.5351333,11.5074673 19.1318741,12.1026981 19.1318741,12.8355058 C19.1318741,13.5697173 18.5351333,14.1649481 17.8004667,14.1649481 L17.8004667,14.1649481 Z M17.9116519,24.1533135 C17.5837259,24.1533135 17.3177259,23.8879865 17.3177259,23.5622942 C17.3177259,23.2351981 17.5837259,22.9698712 17.9116519,22.9698712 C18.2381704,22.9698712 18.5041704,23.2351981 18.5041704,23.5622942 C18.5041704,23.8879865 18.2381704,24.1533135 17.9116519,24.1533135 L17.9116519,24.1533135 Z M12.3974296,9.64315962 C11.1715778,9.64315962 10.1779481,8.65204423 10.1779481,7.43069808 C10.1779481,6.20654423 11.1715778,5.21683269 12.3974296,5.21683269 C13.6232815,5.21683269 14.6169111,6.20654423 14.6169111,7.43069808 C14.6169111,8.65204423 13.6232815,9.64315962 12.3974296,9.64315962 L12.3974296,9.64315962 Z M12.4340222,19.5164096 C11.6979481,19.5164096 11.1026148,18.9225827 11.1026148,18.1883712 C11.1026148,17.4541596 11.6979481,16.8589288 12.4340222,16.8589288 C13.1700963,16.8589288 13.766837,17.4541596 13.766837,18.1883712 C13.766837,18.9225827 13.1700963,19.5164096 12.4340222,19.5164096 L12.4340222,19.5164096 Z M12.6352815,29.4163327 C12.3073556,29.4163327 12.0413556,29.1510058 12.0413556,28.8239096 C12.0413556,28.4982173 12.3073556,28.2328904 12.6352815,28.2328904 C12.9632074,28.2328904 13.2278,28.4982173 13.2278,28.8239096 C13.2278,29.1510058 12.9632074,29.4163327 12.6352815,29.4163327 L12.6352815,29.4163327 Z M7.0140963,15.0128712 C5.78965185,15.0128712 4.79602222,14.0217558 4.79602222,12.7990058 C4.79602222,11.5762558 5.78965185,10.5851404 7.0140963,10.5851404 C8.23994815,10.5851404 9.23357778,11.5762558 9.23357778,12.7990058 C9.23357778,14.0217558 8.23994815,15.0128712 7.0140963,15.0128712 L7.0140963,15.0128712 Z M7.06898519,24.869275 C6.33291111,24.869275 5.73617037,24.2740442 5.73617037,23.5412365 C5.73617037,22.807025 6.33291111,22.2117942 7.06898519,22.2117942 C7.80365185,22.2117942 8.40039259,22.807025 8.40039259,23.5412365 C8.40039259,24.2740442 7.80365185,24.869275 7.06898519,24.869275 L7.06898519,24.869275 Z M7.35891111,34.6793519 C7.03098519,34.6793519 6.76639259,34.414025 6.76639259,34.0869288 C6.76639259,33.7598327 7.03098519,33.4959096 7.35891111,33.4959096 C7.68683704,33.4959096 7.95142963,33.7598327 7.95142963,34.0869288 C7.95142963,34.414025 7.68683704,34.6793519 7.35891111,34.6793519 L7.35891111,34.6793519 Z M1.70254074,30.2207365 C0.966466667,30.2207365 0.371133333,29.6269096 0.371133333,28.8926981 C0.371133333,28.1584865 0.966466667,27.5632558 1.70254074,27.5632558 C2.43861481,27.5632558 3.03535556,28.1584865 3.03535556,28.8926981 C3.03535556,29.6269096 2.43861481,30.2207365 1.70254074,30.2207365 L1.70254074,30.2207365 Z M2.08254074,39.9409673 C1.75602222,39.9409673 1.49002222,39.6770442 1.49002222,39.3499481 C1.49002222,39.0228519 1.75602222,38.7589288 2.08254074,38.7589288 C2.41046667,38.7589288 2.67646667,39.0228519 2.67646667,39.3499481 C2.67646667,39.6770442 2.41046667,39.9409673 2.08254074,39.9409673 L2.08254074,39.9409673 Z M18.5858,0.000140384615 C19.4119481,0.321621154 19.998837,1.12181346 19.998837,2.06098654 C19.998837,3.28373654 19.0052074,4.27344808 17.7793556,4.27344808 C16.5549111,4.27344808 15.5598741,3.28373654 15.5598741,2.06098654 C15.5598741,1.12181346 16.146763,0.321621154 16.9743185,0.000140384615 L9.2195037,0.000140384615 C9.69098519,0.543428846 9.9780963,1.24956346 9.9780963,2.02448654 C9.9780963,3.735775 8.58617037,5.122775 6.87194815,5.122775 C5.15491111,5.122775 3.7658,3.735775 3.7658,2.02448654 C3.7658,1.24956346 4.0515037,0.543428846 4.52298519,0.000140384615 L-0.000422222222,0.000140384615 L-0.000422222222,4.68617885 C1.19728148,3.94915962 2.78765185,4.09515962 3.82631852,5.12979423 C5.0380963,6.34131346 5.0380963,8.30248654 3.82631852,9.51260192 C2.78765185,10.5486404 1.19728148,10.6946404 -0.000422222222,9.95621731 L-0.000422222222,16.6722173 C0.404911111,16.2314096 0.98617037,15.9548519 1.63217037,15.9548519 C2.85802222,15.9548519 3.85165185,16.9459673 3.85165185,18.1673135 C3.85165185,19.3914673 2.85802222,20.3811788 1.63217037,20.3811788 C0.98617037,20.3811788 0.404911111,20.1046212 -0.000422222222,19.6638135 L-0.000422222222,72.4161404 L11.5769111,72.4161404 C7.11120741,70.5532365 4.49765185,66.2265827 4.49765185,61.186775 C4.49765185,54.4441019 9.50520741,48.9789288 16.7055037,48.9789288 C21.1332074,48.9789288 24.0071333,50.1216596 25.8198741,52.0308904 L22.9966148,55.5868327 C21.3921704,54.1212173 18.9840963,53.467025 16.5450593,53.467025 C12.6352815,53.467025 9.34898519,56.9443519 9.34898519,61.2345058 C9.34898519,65.5246596 12.4762444,69.0019865 16.6886148,69.0019865 C20.2310593,69.0019865 23.2316519,67.0927558 23.2316519,63.0819673 L16.4015037,63.0819673 L16.4015037,59.3238712 L28.1463185,59.3238712 L28.1463185,59.3224673 C28.1899481,59.9289288 28.1786889,60.5508327 28.1786889,61.186775 C28.1786889,66.2265827 26.3490593,70.5532365 22.0001704,72.4161404 L32.1363185,72.4161404 L32.1363185,49.4590442 L33.4452074,49.4590442 L44.1358741,60.0243904 L54.8279481,49.4590442 L56.136837,49.4590442 L56.136837,72.4161404 L62.0085407,72.4161404 L62.0085407,49.4590442 L66.7318,49.4590442 L66.7318,72.4161404 L72.6006889,72.4161404 L72.6006889,0.000140384615 L18.5858,0.000140384615 Z" id="Fill-39" fill="#FFFFFF" mask="url(#mask-2)"></path>
                </g>
            </g>
        </g>
    </g>
</svg>