<?xml version="1.0" encoding="UTF-8"?>
<svg width="288px" height="40px" viewBox="0 0 288 40" version="1.1" xmlns="http://www.w3.org/2000/svg" xmlns:xlink="http://www.w3.org/1999/xlink">
    <!-- Generator: Sketch 55.2 (78181) - https://sketchapp.com -->
    <title>logo-gmi</title>
    <desc>Created with Sketch.</desc>
    <g id="Welcome" stroke="none" stroke-width="1" fill="none" fill-rule="evenodd">
        <g id="Desktop-Packaging" transform="translate(-127.000000, -61.000000)" fill="#FFFFFF">
            <g id="LOGO" transform="translate(127.000000, 61.000000)">
                <path d="M103.891976,39.7741176 L105.066772,39.7741176 L105.066772,-1.77635684e-15 L103.891976,-1.77635684e-15 L103.891976,39.7741176 Z M67.475626,1.90117647 L53.1431057,16.1223529 L38.8082358,1.90117647 L37.0530894,1.90117647 L37.0530894,33.52 L43.3852439,33.52 L43.3852439,14.88 L52.5439593,24.1788235 L53.1431057,24.1788235 L53.7399024,24.1788235 L62.8962683,14.88 L62.8962683,33.52 L69.2284228,33.52 L69.2284228,1.90117647 L67.475626,1.90117647 Z M77.1019106,33.52 L83.434065,33.52 L83.434065,1.90117647 L77.1019106,1.90117647 L77.1019106,33.52 Z M31.7054146,15.1764706 C31.7641545,15.9929412 31.7477073,16.8329412 31.7477073,17.6870588 C31.7477073,26.7623529 27.3633659,34.12 16.3649187,34.12 C6.26871545,34.12 1.42108547e-13,26.7623529 1.42108547e-13,17.6870588 C1.42108547e-13,8.61176471 6.71278862,1.25411765 16.3649187,1.25411765 C22.3023415,1.25411765 26.1556748,2.79529412 28.5851545,5.36235294 L24.8023089,10.1482353 C22.6500813,8.17647059 19.4193902,7.29647059 16.1511057,7.29647059 C10.9115122,7.29647059 6.5036748,11.9764706 6.5036748,17.7505882 C6.5036748,23.5247059 10.6976992,28.2047059 16.3437724,28.2047059 C21.0946504,28.2047059 25.1171545,25.6352941 25.1171545,20.2376471 L15.958439,20.2376471 L15.958439,15.1788235 L31.7054146,15.1788235 L31.7054146,15.1764706 Z M286.74674,27.8870588 L286.74674,28.5552941 L283.462008,28.5552941 L283.462008,30.8164706 L286.406049,30.8164706 L286.406049,31.4776471 L283.462008,31.4776471 L283.462008,34.1976471 L282.740683,34.1976471 L282.740683,27.8870588 L286.74674,27.8870588 Z M277.541033,31.92 L276.11248,28.6729412 L274.698024,31.92 L277.541033,31.92 Z M277.830033,32.5835294 L274.399626,32.5835294 L273.699447,34.1976471 L272.93348,34.1976471 L275.76239,27.8870588 L276.507211,27.8870588 L279.324374,34.1976471 L278.541959,34.1976471 L277.830033,32.5835294 Z M267.313252,31.5317647 C268.455154,31.5317647 269.103642,31.0164706 269.103642,30.0235294 C269.103642,29.0588235 268.455154,28.5552941 267.313252,28.5552941 L265.637992,28.5552941 L265.637992,31.5317647 L267.313252,31.5317647 Z M269.040203,34.1976471 L267.717382,32.1788235 C267.590504,32.1882353 267.454228,32.1976471 267.313252,32.1976471 L265.637992,32.1976471 L265.637992,34.1976471 L264.916667,34.1976471 L264.916667,27.8870588 L267.313252,27.8870588 C268.88748,27.8870588 269.799122,28.6635294 269.799122,30.0070588 C269.799122,31.0447059 269.284561,31.7552941 268.375268,32.0447059 L269.860211,34.1976471 L269.040203,34.1976471 Z M260.104699,31.1152941 L260.743789,31.1152941 L260.743789,33.4047059 C260.121146,33.9011765 259.249447,34.2282353 258.403593,34.2282353 C256.57561,34.2282353 255.116512,32.8188235 255.116512,31.0447059 C255.116512,29.2682353 256.582659,27.8705882 258.441187,27.8705882 C259.312886,27.8705882 260.15874,28.2047059 260.762585,28.7364706 L260.346707,29.2588235 C259.834496,28.7976471 259.139016,28.5294118 258.441187,28.5294118 C256.998537,28.5294118 255.844886,29.6470588 255.844886,31.0447059 C255.844886,32.4517647 257.007935,33.5670588 258.445886,33.5670588 C259.016837,33.5670588 259.618333,33.3694118 260.104699,33.0352941 L260.104699,31.1152941 Z M250.664033,31.92 L249.23548,28.6729412 L247.821024,31.92 L250.664033,31.92 Z M250.953033,32.5835294 L247.522626,32.5835294 L246.820098,34.1976471 L246.05648,34.1976471 L248.883041,27.8870588 L249.630211,27.8870588 L252.447374,34.1976471 L251.664959,34.1976471 L250.953033,32.5835294 Z M238.13835,27.8870588 L241.918846,33.0188235 L241.918846,27.8870588 L242.628423,27.8870588 L242.628423,34.1976471 L241.893,34.1976471 L238.110154,29.08 L238.110154,34.1976471 L237.391179,34.1976471 L237.391179,27.8870588 L238.13835,27.8870588 Z M232.337203,34.1976471 L233.058528,34.1976471 L233.058528,27.8870588 L232.337203,27.8870588 L232.337203,34.1976471 Z M223.199634,26.8070588 L220.380122,35.2988235 L219.771577,35.2988235 L222.579341,26.8070588 L223.199634,26.8070588 Z M205.751553,27.8870588 L209.532049,33.0188235 L209.532049,27.8870588 L210.243976,27.8870588 L210.243976,34.1976471 L209.503854,34.1976471 L205.723358,29.08 L205.723358,34.1976471 L205.002033,34.1976471 L205.002033,27.8870588 L205.751553,27.8870588 Z M198.589992,27.0847059 L197.913309,27.0847059 L198.994122,25.8682353 L199.703699,26.1929412 L198.589992,27.0847059 Z M199.802382,31.92 L198.37148,28.6729412 L196.959374,31.92 L199.802382,31.92 Z M200.093732,32.5835294 L196.663325,32.5835294 L195.960797,34.1976471 L195.194829,34.1976471 L198.02139,27.8870588 L198.768561,27.8870588 L201.585724,34.1976471 L200.803309,34.1976471 L200.093732,32.5835294 Z M189.680333,27.8870588 L189.680333,33.5317647 L192.445805,33.5317647 L192.445805,34.1976471 L188.961358,34.1976471 L188.961358,27.8870588 L189.680333,27.8870588 Z M183.905033,34.1976471 L184.626358,34.1976471 L184.626358,27.8870588 L183.905033,27.8870588 L183.905033,34.1976471 Z M174.079033,27.8870588 L176.386333,32.4682353 L178.679537,27.8870588 L179.562984,27.8870588 L179.562984,34.1976471 L178.895699,34.1976471 L178.886301,28.9505882 L176.593098,33.5317647 L176.160772,33.5317647 L173.872268,28.9505882 L173.872268,34.1976471 L173.188537,34.1976471 L173.188537,27.8870588 L174.079033,27.8870588 Z M157.342878,31.0447059 C157.342878,32.44 158.512976,33.5670588 159.918033,33.5670588 C161.323089,33.5670588 162.47439,32.44 162.47439,31.0447059 C162.47439,29.6470588 161.323089,28.5388235 159.918033,28.5388235 C158.512976,28.5388235 157.342878,29.6470588 157.342878,31.0447059 L157.342878,31.0447059 Z M163.212163,31.0447059 C163.212163,32.8188235 161.753065,34.2282353 159.918033,34.2282353 C158.071252,34.2282353 156.614504,32.8188235 156.614504,31.0447059 C156.614504,29.2682353 158.071252,27.8705882 159.918033,27.8705882 C161.753065,27.8705882 163.212163,29.2682353 163.212163,31.0447059 L163.212163,31.0447059 Z M152.890398,30.0235294 C152.890398,29.0588235 152.232512,28.5552941 151.100008,28.5552941 L149.478789,28.5552941 L149.478789,31.5317647 L151.100008,31.5317647 C152.232512,31.5317647 152.890398,31.0164706 152.890398,30.0235294 L152.890398,30.0235294 Z M153.585878,30.0070588 C153.585878,31.3952941 152.683634,32.1976471 151.125854,32.1976471 L149.478789,32.1976471 L149.478789,34.1976471 L148.759813,34.1976471 L148.759813,27.8870588 L151.125854,27.8870588 C152.683634,27.8870588 153.585878,28.6635294 153.585878,30.0070588 L153.585878,30.0070588 Z M141.929545,33.5670588 C143.125488,33.5670588 143.846813,32.8470588 143.846813,31.6023529 L143.846813,27.8870588 L144.568138,27.8870588 L144.568138,31.6023529 C144.568138,33.2541176 143.57661,34.2282353 141.929545,34.2282353 C140.273081,34.2282353 139.274504,33.2541176 139.274504,31.6023529 L139.274504,27.8870588 L139.99348,27.8870588 L139.99348,31.6023529 C139.99348,32.8470588 140.733602,33.5670588 141.929545,33.5670588 L141.929545,33.5670588 Z M132.876561,31.5317647 C134.020813,31.5317647 134.669301,31.0164706 134.669301,30.0235294 C134.669301,29.0588235 134.020813,28.5552941 132.876561,28.5552941 L131.201301,28.5552941 L131.201301,31.5317647 L132.876561,31.5317647 Z M134.603512,34.1976471 L133.283041,32.1788235 C133.156163,32.1882353 133.022236,32.1976471 132.876561,32.1976471 L131.201301,32.1976471 L131.201301,34.1976471 L130.484675,34.1976471 L130.484675,27.8870588 L132.876561,27.8870588 C134.453138,27.8870588 135.362431,28.6635294 135.362431,30.0070588 C135.362431,31.0447059 134.84787,31.7552941 133.938577,32.0447059 L135.42587,34.1976471 L134.603512,34.1976471 Z M125.670358,31.1152941 L126.309447,31.1152941 L126.309447,33.4047059 C125.689154,33.9011765 124.815106,34.2282353 123.969252,34.2282353 C122.141268,34.2282353 120.68452,32.8188235 120.68452,31.0447059 C120.68452,29.2682353 122.150667,27.8705882 124.006846,27.8705882 C124.878545,27.8705882 125.724398,28.2047059 126.328244,28.7364706 L125.912366,29.2588235 C125.400154,28.7976471 124.707024,28.5294118 124.006846,28.5294118 C122.564195,28.5294118 121.412894,29.6470588 121.412894,31.0447059 C121.412894,32.4517647 122.573593,33.5670588 124.013894,33.5670588 C124.582496,33.5670588 125.183992,33.3694118 125.670358,33.0352941 L125.670358,31.1152941 Z M282.071049,7.90117647 C281.048976,7.90117647 280.318252,8.24235294 280.318252,9.04705882 C280.318252,11.2423529 287.20961,10.0964706 287.20961,14.7764706 C287.20961,17.4352941 284.848268,18.7270588 282.071049,18.7270588 C280.09739,18.7270588 278.053244,18.0941176 276.68813,16.8988235 L277.78539,14.68 C278.978984,15.7035294 280.778772,16.2894118 282.193228,16.2894118 C283.290488,16.2894118 284.115195,15.9223529 284.115195,15.0705882 C284.115195,12.6564706 277.32252,13.9741176 277.346016,9.33882353 C277.346016,6.65647059 279.63687,5.41411765 282.266065,5.41411765 C283.97187,5.41411765 285.748163,5.92705882 287.038089,6.80470588 L285.893837,9.09647059 C284.627407,8.34117647 283.191805,7.90117647 282.071049,7.90117647 L282.071049,7.90117647 Z M271.338106,14.0705882 L271.338106,12.9011765 L268.048675,12.9011765 C266.371065,12.9011765 265.58865,13.3623529 265.58865,14.5082353 C265.58865,15.6070588 266.467398,16.3129412 267.903,16.3129412 C269.728634,16.3129412 271.166585,15.3388235 271.338106,14.0705882 L271.338106,14.0705882 Z M271.361602,18.6047059 L271.361602,17.0211765 C270.461707,18.1670588 269.00026,18.7505882 267.14878,18.7505882 C264.348065,18.7505882 262.595268,17.0211765 262.595268,14.7035294 C262.595268,12.2894118 264.373911,10.8023529 267.538813,10.7788235 L271.338106,10.7788235 L271.338106,10.4376471 C271.338106,8.92705882 270.337179,8.02352941 268.389366,8.02352941 C267.172276,8.02352941 265.858854,8.43764706 264.517236,9.24235294 L263.372984,7.04705882 C265.250309,6 266.709407,5.43764706 269.096593,5.43764706 C272.505854,5.43764706 274.427821,7.17176471 274.453667,10.0705882 L274.477163,18.6047059 L271.361602,18.6047059 Z M255.804943,8.24235294 C253.711455,8.24235294 252.250008,9.80470588 252.250008,12.0941176 C252.250008,14.4352941 253.711455,15.9976471 255.804943,15.9976471 C257.315732,15.9976471 258.532821,15.4847059 259.312886,14.4611765 L261.281846,16.0941176 C260.139943,17.7529412 258.19213,18.7270588 255.633423,18.7270588 C251.737797,18.7270588 249.05926,16.0470588 249.05926,12.12 C249.05926,8.14588235 251.763642,5.46117647 255.682764,5.46117647 C258.067602,5.46117647 259.968423,6.34117647 261.136171,7.85411765 L259.214203,9.68 C258.384797,8.77882353 257.240545,8.24235294 255.804943,8.24235294 L255.804943,8.24235294 Z M243.025504,18.6047059 L246.190407,18.6047059 L246.190407,5.56 L243.025504,5.56 L243.025504,18.6047059 Z M242.903325,1.83058824 C242.903325,0.804705882 243.610553,0.0729411765 244.60678,0.0729411765 C245.607707,0.0729411765 246.310236,0.804705882 246.310236,1.83058824 C246.310236,2.85411765 245.607707,3.58588235 244.60678,3.58588235 C243.610553,3.58588235 242.903325,2.85411765 242.903325,1.83058824 L242.903325,1.83058824 Z M239.590398,0.367058824 C240.466797,0.367058824 241.343195,0.56 242.026927,0.927058824 L241.928244,3.65882353 C241.223366,3.34117647 240.443301,3.12 239.81126,3.12 C238.838528,3.12 238.131301,3.58588235 238.131301,4.75529412 L238.131301,6.09647059 L241.394886,6.09647059 L241.394886,8.41176471 L238.131301,8.41176471 L238.131301,18.6047059 L234.964049,18.6047059 L234.964049,8.41176471 L233.260593,8.41176471 L233.260593,6.09647059 L234.964049,6.09647059 L234.964049,4.85411765 C234.964049,1.80470588 237.254902,0.367058824 239.590398,0.367058824 L239.590398,0.367058824 Z M225.958057,3.82823529 L223.28187,3.82823529 L225.861724,0.0729411765 L228.977285,1.31764706 L225.958057,3.82823529 Z M227.541683,14.0705882 L227.541683,12.9011765 L224.254602,12.9011765 C222.574642,12.9011765 221.796927,13.3623529 221.796927,14.5082353 C221.796927,15.6070588 222.673325,16.3129412 224.108927,16.3129412 C225.936911,16.3129412 227.372512,15.3388235 227.541683,14.0705882 L227.541683,14.0705882 Z M227.565179,18.6047059 L227.565179,17.0211765 C226.665285,18.1670588 225.203837,18.7505882 223.354707,18.7505882 C220.553992,18.7505882 218.798846,17.0211765 218.798846,14.7035294 C218.798846,12.2894118 220.577488,10.8023529 223.74474,10.7788235 L227.541683,10.7788235 L227.541683,10.4376471 C227.541683,8.92705882 226.543106,8.02352941 224.595293,8.02352941 C223.378203,8.02352941 222.062431,8.43764706 220.725512,9.24235294 L219.578911,7.04705882 C221.453886,6 222.915333,5.43764706 225.30252,5.43764706 C228.709431,5.43764706 230.636098,7.17176471 230.657244,10.0705882 L230.683089,18.6047059 L227.565179,18.6047059 Z M217.976488,5.43764706 L217.976488,8.51058824 C215.222764,8.34117647 213.542805,9.94823529 213.542805,12.3152941 L213.542805,18.6047059 L210.377902,18.6047059 L210.377902,5.56 L213.542805,5.56 L213.542805,8.07058824 C214.419203,6.36470588 215.953488,5.46117647 217.976488,5.43764706 L217.976488,5.43764706 Z M203.733252,10.12 L206.583309,10.12 L206.583309,16.5341176 C204.830512,17.8494118 202.201317,18.7505882 199.837626,18.7505882 C194.750756,18.7505882 190.829285,14.9717647 190.829285,10.0705882 C190.829285,5.16941176 194.821244,1.44 200.032642,1.44 C202.492667,1.44 204.999683,2.39058824 206.705488,3.87764706 L204.854008,6.26823529 C203.564081,5.07058824 201.761943,4.34117647 200.032642,4.34117647 C196.747911,4.34117647 194.165707,6.85176471 194.165707,10.0705882 C194.165707,13.3152941 196.769057,15.8258824 200.058488,15.8258824 C201.226236,15.8258824 202.565504,15.4117647 203.733252,14.7529412 L203.733252,10.12 Z M177.885374,7.26352941 C176.426276,7.26352941 175.312569,7.78352941 175.312569,9.02352941 C175.312569,11.9764706 182.59161,10.4611765 182.59161,15.1482353 C182.59161,17.7035294 180.314854,18.8423529 177.812537,18.8423529 C175.956358,18.8423529 174.050837,18.1976471 172.810252,17.0070588 L173.555073,15.5952941 C174.66878,16.6376471 176.351089,17.2564706 177.885374,17.2564706 C179.422008,17.2564706 180.660244,16.6611765 180.686089,15.3458824 C180.758927,12.1741176 173.45639,13.7858824 173.479886,9.17176471 C173.479886,6.69176471 175.632114,5.62823529 178.009902,5.62823529 C179.570033,5.62823529 181.083171,6.09882353 182.171033,6.81882353 L181.428561,8.30588235 C180.413537,7.66117647 179.100114,7.26352941 177.885374,7.26352941 L177.885374,7.26352941 Z M169.342252,11.4282353 C169.217724,8.89882353 167.535415,7.26352941 164.983756,7.26352941 C162.483789,7.26352941 160.702797,8.89882353 160.430244,11.4282353 L169.342252,11.4282353 Z M171.076252,12.9647059 L160.430244,12.9647059 C160.749789,15.5458824 162.605967,17.2305882 165.157626,17.2305882 C166.767098,17.2305882 168.179203,16.6376471 169.194228,15.5694118 L170.258593,16.6847059 C169.020358,18.0494118 167.187675,18.8423529 165.009602,18.8423529 C161.172715,18.8423529 158.522374,16.1411765 158.522374,12.2470588 C158.522374,8.35529412 161.196211,5.67764706 164.983756,5.65176471 C169.194228,5.65176471 171.273618,8.55294118 171.076252,12.9647059 L171.076252,12.9647059 Z M156.962244,17.8752941 C156.043553,18.4964706 155.054374,18.8423529 154.013504,18.8423529 C152.107984,18.8682353 150.695878,17.7270588 150.695878,15.1482353 L150.695878,7.63529412 L148.813854,7.63529412 L148.813854,6.12235294 L150.695878,6.12235294 L150.695878,2.70117647 L152.603748,2.70117647 L152.603748,6.12235294 L156.736683,6.12235294 L156.736683,7.63529412 L152.603748,7.63529412 L152.603748,14.8258824 C152.603748,16.4141176 153.221691,17.0564706 154.335398,17.0564706 C155.005033,17.0329412 155.698163,16.8094118 156.417138,16.3882353 L156.962244,17.8752941 Z M147.476935,5.65176471 L147.476935,7.53647059 C144.727911,7.48705882 143.019756,9.19764706 142.796545,11.8258824 L142.796545,18.7694118 L140.865179,18.7694118 L140.865179,5.72705882 L142.796545,5.72705882 L142.796545,8.62823529 C143.663545,6.72 145.270667,5.67764706 147.476935,5.65176471 L147.476935,5.65176471 Z M133.360577,12.4964706 L129.422659,3.56941176 L125.536431,12.4964706 L133.360577,12.4964706 Z M134.15239,14.3294118 L124.718772,14.3294118 L122.787407,18.7694118 L120.68452,18.7694118 L128.456976,1.41176471 L130.51287,1.41176471 L138.261829,18.7694118 L136.107252,18.7694118 L134.15239,14.3294118 Z" id="Fill-1"></path>
            </g>
        </g>
    </g>
</svg>