<?xml version="1.0" encoding="UTF-8"?>
<svg width="81px" height="32px" viewBox="0 0 81 32" version="1.1" xmlns="http://www.w3.org/2000/svg" xmlns:xlink="http://www.w3.org/1999/xlink">
    <!-- Generator: Sketch 55.2 (78181) - https://sketchapp.com -->
    <title>logo-gmi-movil</title>
    <desc>Created with Sketch.</desc>
    <defs>
        <polygon id="path-1" points="0.00113888889 0.0748 30.7799098 0.0748 30.7799098 31.73288 0.00113888889 31.73288"></polygon>
        <polygon id="path-3" points="0 33.9261067 80.8838889 33.9261067 80.8838889 2.26757333 0 2.26757333"></polygon>
    </defs>
    <g id="Welcome" stroke="none" stroke-width="1" fill="none" fill-rule="evenodd">
        <g id="Mobile-Home" transform="translate(-53.000000, -52.000000)">
            <g id="GMI" transform="translate(53.000000, 50.000000)">
                <g id="Group-7">
                    <g id="Group-3" transform="translate(0.000000, 2.192773)">
                        <mask id="mask-2" fill="white">
                            <use xlink:href="#path-1"></use>
                        </mask>
                        <g id="Clip-2"></g>
                        <path d="M30.7351944,13.4862133 C30.7921389,14.2727467 30.7784722,15.07968 30.7784722,15.90248 C30.7784722,24.6450133 26.5258611,31.73288 15.8658611,31.73288 C6.07825,31.73288 0.00113888889,24.6450133 0.00113888889,15.90248 C0.00113888889,7.15994667 6.50647222,0.0743466667 15.8658611,0.0743466667 C21.6195278,0.0743466667 25.3573611,1.55674667 27.7125833,4.03194667 L24.0430833,8.64234667 C21.9566389,6.74288 18.8246944,5.89288 15.6585833,5.89288 C10.5768611,5.89288 6.30375,10.4035467 6.30375,15.9659467 C6.30375,21.5283467 10.3718611,26.0367467 15.8453611,26.0367467 C20.44875,26.0367467 24.3483056,23.55928 24.3483056,18.3595467 L15.4718056,18.3595467 L15.4718056,13.48848 L30.7351944,13.48848 L30.7351944,13.4862133 Z" id="Fill-1" fill="#FFFFFF" mask="url(#mask-2)"></path>
                    </g>
                    <mask id="mask-4" fill="white">
                        <use xlink:href="#path-3"></use>
                    </mask>
                    <g id="Clip-5"></g>
                    <polygon id="Fill-4" fill="#FFFFFF" mask="url(#mask-4)" points="74.7452778 33.3503733 80.8838889 33.3503733 80.8838889 2.89090667 74.7452778 2.89090667"></polygon>
                    <polygon id="Fill-6" fill="#FFFFFF" mask="url(#mask-4)" points="65.41345 2.89022667 51.5167278 16.58996 37.6222833 2.89022667 35.9207833 2.89022667 35.9207833 33.3496933 42.0593944 33.3496933 42.0593944 15.39316 50.9381722 24.34876 51.5167278 24.34876 52.0975611 24.34876 60.9740611 15.39316 60.9740611 33.3496933 67.1126722 33.3496933 67.1126722 2.89022667"></polygon>
                </g>
            </g>
        </g>
    </g>
</svg>