<?xml version="1.0" encoding="UTF-8"?>
<svg width="51px" height="54px" viewBox="0 0 51 54" version="1.1" xmlns="http://www.w3.org/2000/svg" xmlns:xlink="http://www.w3.org/1999/xlink">
    <!-- Generator: Sketch 55.2 (78181) - https://sketchapp.com -->
    <title>marga-registro</title>
    <desc>Created with Sketch.</desc>
    <defs>
        <polygon id="path-1" points="0.000295652174 0.000234782609 50.3126087 0.000234782609 50.3126087 53.2723304 0.000295652174 53.2723304"></polygon>
    </defs>
    <g id="Welcome" stroke="none" stroke-width="1" fill="none" fill-rule="evenodd">
        <g id="Producto" transform="translate(-20.000000, -2032.000000)">
            <g id="Scroll" transform="translate(20.000000, 2032.000000)">
                <g id="Group-3">
                    <mask id="mask-2" fill="white">
                        <use xlink:href="#path-1"></use>
                    </mask>
                    <g id="Clip-2"></g>
                    <path d="M25.6104261,38.1375391 L25.6104261,33.4911913 C28.8352522,33.2540609 31.406687,30.5313652 31.6306435,27.1168435 L36.0188609,27.1168435 C35.7860348,33.0834522 31.2462957,37.8910174 25.6104261,38.1375391 L25.6104261,38.1375391 Z M14.2936,27.1168435 L18.6818174,27.1168435 C18.9057739,30.5313652 21.4772087,33.2540609 24.7020348,33.4911913 L24.7020348,38.1375391 C19.0669043,37.8910174 14.5264261,33.0834522 14.2936,27.1168435 L14.2936,27.1168435 Z M24.7020348,15.1343217 L24.7020348,19.7806696 C21.4772087,20.0178 18.9057739,22.7412783 18.6818174,26.1550174 L14.2936,26.1550174 C14.5264261,20.1884087 19.0669043,15.3816261 24.7020348,15.1343217 L24.7020348,15.1343217 Z M36.0188609,26.1550174 L31.6306435,26.1550174 C31.406687,22.7412783 28.8352522,20.0178 25.6104261,19.7806696 L25.6104261,15.1343217 C31.2462957,15.3816261 35.7860348,20.1884087 36.0188609,26.1550174 L36.0188609,26.1550174 Z M50.3129043,26.1550174 L36.9272522,26.1550174 C36.6929478,19.6585826 31.746687,14.4205826 25.6104261,14.1724957 L25.6104261,0.000234782609 L24.7020348,0.000234782609 L24.7020348,14.1724957 C18.566513,14.4205826 13.619513,19.6585826 13.3852087,26.1550174 L0.000295652174,26.1550174 L0.000295652174,27.1168435 L13.3852087,27.1168435 C13.619513,33.6140609 18.566513,38.8520609 24.7020348,39.0993652 L24.7020348,53.2724087 L25.6104261,53.2724087 L25.6104261,39.0993652 C31.746687,38.8520609 36.6929478,33.6140609 36.9272522,27.1168435 L50.3129043,27.1168435 L50.3129043,26.1550174 Z" id="Fill-1" fill="#003DA6" mask="url(#mask-2)"></path>
                </g>
            </g>
        </g>
    </g>
</svg>