<?xml version="1.0" encoding="UTF-8"?>
<svg width="56px" height="56px" viewBox="0 0 56 56" version="1.1" xmlns="http://www.w3.org/2000/svg" xmlns:xlink="http://www.w3.org/1999/xlink">
    <!-- Generator: Sketch 55.2 (78181) - https://sketchapp.com -->
    <title>marca-registro-white</title>
    <desc>Created with Sketch.</desc>
    <defs>
        <polygon id="path-1" points="0.000324637681 0.000243478261 55.2452174 0.000243478261 55.2452174 55.2453797 0.000324637681 55.2453797"></polygon>
    </defs>
    <g id="Welcome" stroke="none" stroke-width="1" fill="none" fill-rule="evenodd">
        <g id="HOME" transform="translate(-689.000000, -3633.000000)">
            <g id="Scroll" transform="translate(689.000000, 3633.000000)">
                <g id="Group-3">
                    <mask id="mask-2" fill="white">
                        <use xlink:href="#path-1"></use>
                    </mask>
                    <g id="Clip-2"></g>
                    <path d="M28.1212522,39.5500406 L28.1212522,34.7316058 C31.6622377,34.4856928 34.4857739,31.6621565 34.731687,28.121171 L39.5501217,28.121171 C39.2944696,34.3087652 34.309658,39.2943884 28.1212522,39.5500406 L28.1212522,39.5500406 Z M15.6949333,28.121171 L20.5133681,28.121171 C20.7592812,31.6621565 23.5828174,34.4856928 27.1238029,34.7316058 L27.1238029,39.5500406 C20.9362087,39.2943884 15.9505855,34.3087652 15.6949333,28.121171 L15.6949333,28.121171 Z M27.1238029,15.6948522 L27.1238029,20.513287 C23.5828174,20.7592 20.7592812,23.5835478 20.5133681,27.1237217 L15.6949333,27.1237217 C15.9505855,20.9361275 20.9362087,15.9513159 27.1238029,15.6948522 L27.1238029,15.6948522 Z M39.5501217,27.1237217 L34.731687,27.1237217 C34.4857739,23.5835478 31.6622377,20.7592 28.1212522,20.513287 L28.1212522,15.6948522 C34.309658,15.9513159 39.2944696,20.9361275 39.5501217,27.1237217 L39.5501217,27.1237217 Z M55.245542,27.1237217 L40.547571,27.1237217 C40.2902957,20.3866783 34.8591072,14.9546783 28.1212522,14.6974029 L28.1212522,0.000243478261 L27.1238029,0.000243478261 L27.1238029,14.6974029 C20.3867594,14.9546783 14.9547594,20.3866783 14.6974841,27.1237217 L0.000324637681,27.1237217 L0.000324637681,28.121171 L14.6974841,28.121171 C14.9547594,34.8590261 20.3867594,40.2910261 27.1238029,40.5474899 L27.1238029,55.2454609 L28.1212522,55.2454609 L28.1212522,40.5474899 C34.8591072,40.2910261 40.2902957,34.8590261 40.547571,28.121171 L55.245542,28.121171 L55.245542,27.1237217 Z" id="Fill-1" fill="#FFFFFF" mask="url(#mask-2)"></path>
                </g>
            </g>
        </g>
    </g>
</svg>