<?xml version="1.0" encoding="UTF-8"?>
<svg width="15px" height="15px" viewBox="0 0 15 15" version="1.1" xmlns="http://www.w3.org/2000/svg" xmlns:xlink="http://www.w3.org/1999/xlink">
    <!-- Generator: Sketch 55.2 (78181) - https://sketchapp.com -->
    <title>Path</title>
    <desc>Created with Sketch.</desc>
    <g id="Welcome" stroke="none" stroke-width="1" fill="none" fill-rule="evenodd">
        <path d="M13.4413276,6.014 L8.42832759,6.134 L8.30832759,1.12 C8.29432759,0.523 7.81832759,0.041 7.20132759,0.002 L7.16732759,0 L7.13232759,0.001 C6.50132759,0.017 5.99932759,0.543 6.01332759,1.176 L6.13232759,6.189 L1.12032759,6.309 C0.48732759,6.325 -0.0146724096,6.852 0.000327590417,7.484 C0.0153275904,8.101 0.53032759,8.604 1.14832759,8.604 L1.16532759,8.604 L6.18832759,8.484 L6.30832759,13.497 C6.32332759,14.115 6.83732759,14.617 7.45632759,14.617 L7.47432759,14.617 L7.48332759,14.617 C8.11632759,14.601 8.61832759,14.074 8.60332759,13.442 L8.48332759,8.429 L13.4973276,8.309 C14.1283276,8.293 14.6303276,7.766 14.6163276,7.134 C14.6013276,6.522 14.1183276,6.04 13.4413276,6.014 L13.4413276,6.014 Z" id="Path" fill="#FFFFFF"></path>
    </g>
</svg>