<?xml version="1.0" encoding="UTF-8"?>
<svg width="19px" height="32px" viewBox="0 0 19 32" version="1.1" xmlns="http://www.w3.org/2000/svg" xmlns:xlink="http://www.w3.org/1999/xlink">
    <!-- Generator: Sketch 55.2 (78181) - https://sketchapp.com -->
    <title>phone</title>
    <desc>Created with Sketch.</desc>
    <g id="Welcome" stroke="none" stroke-width="1" fill="none" fill-rule="evenodd">
        <g id="Desktop-Packaging" transform="translate(-1106.000000, -57.000000)" fill="#FFFFFF" fill-rule="nonzero">
            <g id="PHONE" transform="translate(1106.000000, 57.000000)">
                <path d="M2.05405405,0 L16.9459459,0 C18.0803687,0 19,0.909643683 19,2.03174603 L19,29.968254 C19,31.0903563 18.0803687,32 16.9459459,32 L2.05405405,32 C0.919631325,32 0,31.0903563 0,29.968254 L0,2.03174603 C0,0.909643683 0.919631325,0 2.05405405,0 Z M2.05405405,1.01587302 C1.48684269,1.01587302 1.02702703,1.47069486 1.02702703,2.03174603 L1.02702703,29.968254 C1.02702703,30.5293051 1.48684269,30.984127 2.05405405,30.984127 L16.9459459,30.984127 C17.5131573,30.984127 17.972973,30.5293051 17.972973,29.968254 L17.972973,2.03174603 C17.972973,1.47069486 17.5131573,1.01587302 16.9459459,1.01587302 L2.05405405,1.01587302 Z" id="Rectangle"></path>
                <path d="M3.59459459,2.53968254 L15.4054054,2.53968254 C15.9726168,2.53968254 16.4324324,2.99450438 16.4324324,3.55555556 L16.4324324,28.952381 C16.4324324,29.5134321 15.9726168,29.968254 15.4054054,29.968254 L3.59459459,29.968254 C3.02738323,29.968254 2.56756757,29.5134321 2.56756757,28.952381 L2.56756757,3.55555556 C2.56756757,2.99450438 3.02738323,2.53968254 3.59459459,2.53968254 Z M3.59459459,3.04761905 C3.31098891,3.04761905 3.08108108,3.27502997 3.08108108,3.55555556 L3.08108108,28.952381 C3.08108108,29.2329065 3.31098891,29.4603175 3.59459459,29.4603175 L15.4054054,29.4603175 C15.6890111,29.4603175 15.9189189,29.2329065 15.9189189,28.952381 L15.9189189,3.55555556 C15.9189189,3.27502997 15.6890111,3.04761905 15.4054054,3.04761905 L3.59459459,3.04761905 Z" id="Rectangle"></path>
            </g>
        </g>
    </g>
</svg>